# xmcd
#
# Track frame offsets: 
#        150
#        16783
#        38059
#        54106
#        70794
#        97023
#        111111
#        128604
#        142355
#        156640
#        176179
#        188956
#        207567
#
# Disc length: 3063 seconds
#
# Revision: 0
# Processed by: cddbd v1.5.1PL0 Copyright (c) Steve Scherf et al.
# Submitted via: ExactAudioCopy v0.95a3
#
DISCID=be0bf50d
DTITLE=Percy Sledge - Shining Through The Rain
DYEAR=2004
DGENRE=R&B
TTITLE0=Shining Through The Rain
TTITLE1=Lonely Hobo Lullabye
TTITLE2=24 - 7 - 365
TTITLE3=Love Come Rescue Me
TTITLE4=Misty Morning
TTITLE5=A Lonely Violin
TTITLE6=Big Blue Diamonds
TTITLE7=My Old Friend The Blues
TTITLE8=Rubies and Diamonds
TTITLE9=Change My Mind
TTITLE10=Searching For My Love
TTITLE11=Fall Inside Your Eyes
TTITLE12=Road Of No Return
EXTD=
EXTT0=
EXTT1=
EXTT2=
EXTT3=
EXTT4=
EXTT5=
EXTT6=
EXTT7=
EXTT8=
EXTT9=
EXTT10=
EXTT11=
EXTT12=
PLAYORDER=
